# xmcd
#
# Track frame offsets: 
#        150
#        52222
#        82250
#        105827
#        162105
#
# Disc length: 2527 seconds
#
# Revision: 2
# Processed by: cddbd v1.5.2PL0 Copyright (c) Steve Scherf et al.
# Submitted via: ExactAudioCopyFreeDBPlugin 1.0
#
DISCID=3809dd05
DTITLE=Richard Beirach - ELM
DYEAR=1979
DGENRE=Jazz
TTITLE0=Sea Priesters
TTITLE1=Pendulum
TTITLE2=Ki
TTITLE3=Snow Leopard
TTITLE4=Elm
EXTD=YEAR: 1979
EXTT0=
EXTT1=
EXTT2=
EXTT3=
EXTT4=
PLAYORDER=
